<svg xmlns="http://www.w3.org/2000/svg" viewBox="0 0 800 600" fill="none">
    <!-- Dark theme background -->
    <rect width="800" height="600" fill="#121212" rx="8"/>

    <!-- Card with elevation -->
    <g filter="url(#shadow)">
        <rect x="200" y="150" width="400" height="300" fill="#1E1E1E" rx="16"/>
    </g>

    <!-- Material Design duck mascot -->
    <g transform="translate(400 240)">
        <!-- Duck body -->
        <path fill="#FFC107" d="M-40 0a60 60 0 0 1 80 0c0 33.14-17.9 60-40 60S-40 33.14-40 0Z"/>

        <!-- Duck head -->
        <circle cx="20" cy="-25" r="30" fill="#FFC107"/>

        <!-- Eye -->
        <circle cx="35" cy="-35" r="5" fill="#212121"/>

        <!-- Beak -->
        <path fill="#FF9800" d="M45-15a15 15 0 0 1-30 0 7.5 7.5 0 0 1 15 0 7.5 7.5 0 0 0 15 0Z"/>

        <!-- Wing -->
        <path fill="#FFA000" d="M0 10c-11.05 0-20-8.95-20-20v-5c0-11.05 8.95-20 20-20s20 8.95 20 20v5c0 11.05-8.95 20-20 20Z"/>
    </g>

    <!-- Text content -->
    <text fill="#FF5252" font-family="Roboto" font-size="120" font-weight="700" text-anchor="middle">
        <tspan x="400" y="330">404</tspan>
    </text>

    <text fill="#BB86FC" font-family="Roboto" font-size="48" font-weight="500" text-anchor="middle">
        <tspan x="400" y="390">Oops...</tspan>
    </text>

    <text fill="#E0E0E0" font-family="Roboto" font-size="32" font-weight="400" text-anchor="middle">
        <tspan x="400" y="440">page not found</tspan>
    </text>

    <!-- Material Design shadow -->
    <defs>
        <filter id="shadow" x="180" y="140" width="440" height="320" filterUnits="userSpaceOnUse" color-interpolation-filters="sRGB">
            <feFlood flood-opacity="0" result="BackgroundImageFix"/>
            <feColorMatrix in="SourceAlpha" values="0 0 0 0 0 0 0 0 0 0 0 0 0 0 0 0 0 0 127 0"/>
            <feOffset dy="8"/>
            <feGaussianBlur stdDeviation="12"/>
            <feColorMatrix values="0 0 0 0 0 0 0 0 0 0 0 0 0 0 0 0 0 0 0.24 0"/>
            <feBlend in2="BackgroundImageFix" result="effect1_dropShadow"/>
            <feBlend in="SourceGraphic" in2="effect1_dropShadow" result="shape"/>
        </filter>
    </defs>
</svg>